<svg width="200" height="200" viewBox="0 0 200 200" xmlns="http://www.w3.org/2000/svg">
  <defs>
    <linearGradient id="grad1" x1="0%" y1="0%" x2="100%" y2="100%">
      <stop offset="0%" style="stop-color:#667eea;stop-opacity:1" />
      <stop offset="100%" style="stop-color:#764ba2;stop-opacity:1" />
    </linearGradient>
    <linearGradient id="grad2" x1="0%" y1="0%" x2="100%" y2="0%">
      <stop offset="0%" style="stop-color:#f093fb;stop-opacity:1" />
      <stop offset="100%" style="stop-color:#f5576c;stop-opacity:1" />
    </linearGradient>
  </defs>
  
  <!-- Background circle -->
  <circle cx="100" cy="100" r="90" fill="url(#grad1)" opacity="0.1"/>
  
  <!-- Main abstract shape - overlapping geometric forms -->
  <g transform="translate(100, 100)">
    <!-- Central hexagon -->
    <polygon points="0,-40 35,-20 35,20 0,40 -35,20 -35,-20" 
             fill="url(#grad1)" opacity="0.8"/>
    
    <!-- Rotated square -->
    <rect x="-25" y="-25" width="50" height="50" 
          fill="url(#grad2)" opacity="0.7" 
          transform="rotate(45)"/>
    
    <!-- Floating circles -->
    <circle cx="45" cy="-30" r="12" fill="#667eea" opacity="0.6"/>
    <circle cx="-45" cy="30" r="15" fill="#f093fb" opacity="0.6"/>
    <circle cx="30" cy="45" r="10" fill="#764ba2" opacity="0.6"/>
    
    <!-- Connecting lines -->
    <line x1="35" y1="-20" x2="45" y2="-30" stroke="#667eea" stroke-width="2" opacity="0.4"/>
    <line x1="-35" y1="20" x2="-45" y2="30" stroke="#f093fb" stroke-width="2" opacity="0.4"/>
    <line x1="35" y1="20" x2="30" y2="45" stroke="#764ba2" stroke-width="2" opacity="0.4"/>
    
    <!-- Inner accent shapes -->
    <circle cx="0" cy="0" r="8" fill="white" opacity="0.9"/>
    <polygon points="0,-15 10,-5 10,5 0,15 -10,5 -10,-5" 
             fill="white" opacity="0.7" transform="rotate(30)"/>
  </g>
  
  <!-- Subtle outer ring -->
  <circle cx="100" cy="100" r="95" fill="none" stroke="url(#grad1)" stroke-width="1" opacity="0.3"/>
</svg>